<svg width="257" height="128" viewBox="0 0 257 128" version="1.1" xmlns="http://www.w3.org/2000/svg"><title>sage</title><path d="M60.51 87.544L37.762 71.016l8.69-26.743H74.57l8.69 26.743-22.75 16.528zm60.51-43.58l-23.276-16.91L75.16 43.46l8.627-26.55L60.51 0 37.234 16.91l8.627 26.55-22.584-16.407L0 43.963l8.84 27.208.05.156H36.81l-22.586 16.41 8.84 27.207.05.155h28.772l8.626-26.55 8.577 26.395.05.155h28.77l8.892-27.362-22.587-16.41h27.917l8.89-27.362zm126.43 51.532c0-.625-.625-5-5.626-5-5 0-5.625 4.375-5.625 5l.624.626h10l.626-.626zm9.376 6.252l-.625.624h-19.376l-.625.625c0 1.25 1.248 5 6.25 5 1.874 0 3.75-.624 4.375-1.874l.625-.626h7.5l.625.626c-.625 3.75-3.75 9.376-13.126 9.376-10.627 0-15.628-7.502-15.628-16.253 0-8.75 5-16.252 15.002-16.252 10 0 15.002 7.5 15.002 16.252v2.5zm-48.628 6.25c5 0 6.876-3.75 6.876-8.75s-1.876-8.752-6.876-8.752-6.875 3.75-6.875 8.75c0 5.002 1.875 8.752 6.875 8.752zm15.627 3.75c0 11.25-6.876 16.252-15.627 16.252-7.5 0-12.5-3.75-13.127-9.376l.627-.625h7.5l.626.624c.625 1.25 1.875 1.875 4.375 1.875 4.375 0 6.876-2.5 6.876-8.127h-.625s-2.5 3.126-8.127 3.126c-7.5 0-13.752-6.252-13.752-16.253 0-10 6.252-16.252 13.753-16.252 5.626 0 8.126 3.125 8.126 3.125h.624l.626-1.874.624-.626h6.875l.625.626v27.503zm-43.565-10s-1.25-.626-3.75-.626c-3.75 0-5.626 1.25-5.626 3.75 0 1.876 1.25 3.126 4.375 3.126s5.625-1.875 5.625-4.375v-1.25l-.625-.625zm8.75 13.126h-6.875l-.625-.625-.625-1.252h-.625s-2.5 2.5-6.875 2.5c-6.877 0-11.252-3.75-11.252-10 0-9.376 8.75-10.627 13.752-10.627 2.5 0 4.375.626 4.375.626l.625-.625v-.623c0-3.126-.625-3.75-4.375-3.75-1.876 0-3.75 0-4.376 1.874l-.625.626h-7.502l-.625-.625c0-3.75 3.125-9.375 13.127-9.375 10 0 13.126 5 13.126 14.377v16.877l-.625.624zm-47.626.625c-12.5 0-18.127-6.252-18.127-14.378l.625-.625h7.5l.626.625c0 4.375 2.5 6.876 10 6.876 5.627 0 8.752-1.875 8.752-5.626 0-4.375-2.5-5.625-11.25-6.876-8.752-1.25-15.628-4.375-15.628-13.126 0-6.25 5-11.877 16.877-11.877 11.876 0 16.876 5.626 16.876 13.127l-.625.626h-7.5l-.625-.626c0-3.75-1.875-5.626-8.75-5.626-5.627 0-7.5 1.876-7.5 4.376 0 3.75 2.5 5 11.25 6.25s15.626 5 15.626 13.752c0 6.876-5 13.127-18.126 13.127z" fill="#F4F4F4" stroke="none" stroke-width="1" fill-rule="evenodd"/></svg>